# AST/ASF file generated using VICON BodyLanguage
# -----------------------------------------------
:version 1.10
:name VICON
:units
  mass 1.0
  length 0.45
  angle deg
:documentation
   .ast/.asf automatically generated from VICON data using
   VICON BodyBuilder and BodyLanguage model FoxedUp or BRILLIANT.MOD
:root
   order TX TY TZ RX RY RZ
   axis XYZ
   position 0 0 0  
   orientation 0 0 0 
:bonedata
  begin
     id 1 
     name lhipjoint
     direction 0.603808 -0.713975 0.35448 
     length 2.2025 
     axis 0 0 0  XYZ
  end
  begin
     id 2 
     name lfemur
     direction 0.34202 -0.939693 0  
     length 6.55877  
     axis 0 0 20  XYZ
    dof rx ry rz
    limits (-160.0 20.0)
           (-70.0 70.0)
           (-60.0 70.0)
  end
  begin
     id 3 
     name ltibia
     direction 0.34202 -0.939693 0   
     length 6.80302   
     axis 0 0 20   XYZ
    dof rx
    limits (-10.0 170.0)
  end
  begin
     id 4 
     name lfoot
     direction 0.091848 -0.25235 0.963267   
     length 2.03446   
     axis -90 7.62852e-016 20   XYZ
    dof rx rz
    limits (-45.0 90.0)
           (-70.0 20.0)
  end
  begin
     id 5 
     name ltoes
     direction 1.53608e-011 -4.21925e-011 1   
     length 1.02033   
     axis -90 7.62852e-016 20   XYZ
    dof rx
    limits (-90.0 20.0)
  end
  begin
     id 6 
     name rhipjoint
     direction -0.587285 -0.724947 0.359928   
     length 2.16916  
     axis 0 0 0  XYZ 
  end
  begin
     id 7 
     name rfemur
     direction -0.34202 -0.939693 0   
     length 6.43173   
     axis 0 0 -20   XYZ
    dof rx ry rz
    limits (-160.0 20.0)
           (-70.0 70.0)
           (-70.0 60.0)
  end
  begin
     id 8 
     name rtibia
     direction -0.34202 -0.939693 0   
     length 6.70662   
     axis 0 0 -20   XYZ
    dof rx
    limits (-10.0 170.0)
 end
 begin
     id 9 
     name rfoot
     direction -0.11854 -0.325686 0.938018   
     length 2.0773  
     axis -90 -7.62852e-016 -20   XYZ
    dof rx rz
    limits (-45.0 90.0)
           (-20.0 70.0)
  end
  begin
     id 10 
     name rtoes
     direction -1.53547e-011 -4.21838e-011 1   
     length 1.03267   
     axis -90 -7.62852e-016 -20   XYZ
    dof rx
    limits (-90.0 20.0)
  end
  begin
     id 11 
     name lowerback
     direction -0.0286554 0.999539 0.0100613   
     length 2.08751   
     axis 0 0 0   XYZ
    dof rx ry rz
    limits (-20.0 45.0)
           (-30.0 30.0)
           (-30.0 30.0)
  end
  begin
     id 12 
     name upperback
     direction 0.0227093 0.999705 -0.00860929   
     length 2.08517   
     axis 0 0 0   XYZ
    dof rx ry rz
    limits (-20.0 45.0)
           (-30.0 30.0)
           (-30.0 30.0)
  end
  begin
     id 13 
     name thorax
     direction 0.0351627 0.999285 -0.013892   
     length 2.08412   
     axis 0 0 0   XYZ
    dof rx ry rz
    limits (-20.0 45.0)
           (-30.0 30.0)
           (-30.0 30.0)
  end
  begin
     id 14 
     name lowerneck
     direction -0.0696283 0.997344 0.0213922   
     length 1.44164   
     axis 0 0 0   XYZ
    dof rx ry rz
    limits (-20.0 45.0)
           (-30.0 30.0)
           (-30.0 30.0)
  end
  begin
     id 15 
     name upperneck
     direction 0.0531 0.990412 -0.127531   
     length 1.45022   
     axis 0 0 0   XYZ
    dof rx ry rz
    limits (-20.0 45.0)
           (-30.0 30.0)
           (-30.0 30.0)
  end
  begin
     id 16
     name head
     direction 0.0188154 0.998548 -0.0504727  
     length 1.45845  
     axis 0 0 0   XYZ
    dof rx ry rz
    limits (-20.0 45.0)
           (-30.0 30.0)
           (-30.0 30.0)
  end
  begin
     id 17 
     name lclavicle
     direction 0.961559 0.260051 0.088188  
     length 2.86057  
     axis 0 0 0   XYZ
    dof ry rz
    limits (-20.0 10.0)
           (0.0 20.0)
  end
  begin
     id 18 
     name lhumerus
     direction 1 -4.48959e-011 2.88185e-027   
     length 4.36901   
     axis 180 -30 -90   XYZ
    dof rx ry rz
    limits (-60.0 90.0)
           (-90.0 90.0)
           (-90.0 90.0)
  end
  begin
     id 19
     name lradius
     direction 1 -4.48965e-011 -3.92618e-028   
     length 3.21737   
     axis 180 -30 -90   XYZ
    dof rx
    limits (-10.0 170.0)
  end
  begin
     id 20
     name lwrist
     direction 1 -4.49037e-011 2.57246e-027   
     length 1.60869   
     axis -1.61769e-015 90 90   XYZ
    dof ry
    limits (-180.0 0.0)
 end
  begin
     id 21 
     name lhand
     direction 1 -4.48807e-011 5.12958e-027   
     length 0.564313   
     axis -3.27988e-015 90 90   XYZ
    dof rx rz
    limits (-90.0 90.0)
           (-45.0 45.0)
  end
  begin
     id 22 
     name lfingers
     direction 1 -4.48879e-011 1.02687e-026   
     length 0.454963   
     axis -6.5598e-015 90 90   XYZ
    dof rx
    limits (0.0 90.0)
  end
  begin
     id 23
     name lthumb
     direction 0.707107 -6.3475e-011 0.707107   
     length 0.653239   
     axis -90 45 2.19363e-014   XYZ
    dof rx rz
    limits (-45.0 45.0)
           (-45.0 45.0)
  end
  begin
     id 24 
     name rclavicle
     direction -0.954677 0.253915 0.155304   
     length 3.11497  
     axis 0 0 0   XYZ 
    dof ry rz
    limits (-10.0 20.0)
           (-20.0 0.0)
  end
  begin
     id 25 
     name rhumerus
     direction -1 -4.48958e-011 -8.20169e-028  
     length 4.34118   
     axis 180 30 90   XYZ
    dof rx ry rz
    limits (-90.0 60.0)
           (-90.0 90.0)
           (-90.0 90.0)
  end
  begin
     id 26 
     name rradius
     direction -1 -4.48978e-011 1.5676e-027   
     length 3.09531   
     axis 180 30 90   XYZ
    dof rx
    limits (-10.0 170.0)
  end
  begin
     id 27 
     name rwrist
     direction -1 -4.49001e-011 2.57123e-027   
     length 1.54765   
     axis -1.61769e-015 -90 -90   XYZ
    dof ry
    limits (-180.0 0.0)
  end
  begin
     id 28
     name rhand
     direction -1 -4.48847e-011 5.13225e-027   
     length 0.597446   
     axis -3.27988e-015 -90 -90   XYZ
    dof rx rz
    limits (-90.0 90.0)
           (-45.0 45.0)
  end
  begin
     id 29
     name rfingers
     direction -1 -4.49094e-011 1.02974e-026   
     length 0.481677   
     axis -6.5598e-015 -90 -90   XYZ
    dof rx
    limits (0.0 90.0)
  end
  begin
     id 30
     name rthumb
     direction -0.707107 -6.34859e-011 0.707107   
     length 0.691594   
     axis -90 -45 -2.19363e-014   XYZ
    dof rx rz
    limits (-45.0 45.0)
           (-45.0 45.0)
  end
:hierarchy
  begin
    root lhipjoint rhipjoint lowerback
    lhipjoint lfemur
    lfemur ltibia
    ltibia lfoot
    lfoot ltoes
    rhipjoint rfemur
    rfemur rtibia
    rtibia rfoot
    rfoot rtoes
    lowerback upperback
    upperback thorax
    thorax lowerneck lclavicle rclavicle
    lowerneck upperneck
    upperneck head
    lclavicle lhumerus
    lhumerus lradius
    lradius lwrist
    lwrist lhand lthumb
    lhand lfingers
    rclavicle rhumerus
    rhumerus rradius
    rradius rwrist
    rwrist rhand rthumb
    rhand rfingers
  end

#!OML:ASF G:\acrobat\cartwheel_test 2\Patient 1\Session 1\acrobat.ASF
:FULLY-SPECIFIED
:DEGREES
33
root 7.55813 14.5963 -0.681172 -9.85994 0.17705 1.69237
lowerback -0.839627 -0.36547 -3.55022
upperback 0.270109 -0.456365 1.25042
thorax 0.786263 -0.248729 3.26973
lowerneck -9.81826 -5.43653 -6.86446
upperneck 16.9069 -7.04207 3.99909
head 7.18299 -3.4895 1.76579
rclavicle -3.8763e-015 7.95139e-015
rhumerus 44.2034 1.25882 -66.5656
rradius 20.1075
rwrist 29.4266
rhand -20.7568 39.2632
rfingers 7.12502
rthumb 5.60916 9.35747
lclavicle -3.8763e-015 7.95139e-015
lhumerus 42.0175 -19.6464 44.5217
lradius 29.1302
lwrist 16.3135
lhand -14.8965 40.9731
lfingers 7.12502
lthumb 11.2646 70.6506
rfemur -10.7972 -5.99409 11.9493
rtibia 52.8534
rfoot -29.949 -16.6318
rtoes -13.8687
lfemur -13.8782 5.03166 -10.1581
ltibia 53.9224
lfoot -23.5283 11.8437
ltoes -15.4475
34
root 7.55559 14.5971 -0.676891 -9.90545 0.1751 1.71015
lowerback -0.851774 -0.365293 -3.58135
upperback 0.320696 -0.455031 1.26883
thorax 0.845353 -0.250308 3.30607
lowerneck -9.92874 -5.42874 -6.89864
upperneck 16.9491 -7.01571 3.981
head 7.21537 -3.47884 1.76497
rclavicle 1.38155e-014 -1.39149e-014
rhumerus 44.2618 1.27732 -66.4707
rradius 20.1895
rwrist 29.3163
rhand -20.6315 39.1732
rfingers 7.12502
rthumb 5.73011 9.27071
lclavicle 1.38155e-014 -1.39149e-014
lhumerus 42.0316 -19.4488 44.7121
lradius 29.0736
lwrist 16.12
lhand -15.0631 40.7449
lfingers 7.12502
lthumb 11.1039 70.4312
rfemur -10.7223 -6.0174 11.9211
rtibia 52.8415
rfoot -29.9525 -16.6336
rtoes -13.924
lfemur -13.797 5.03476 -10.1602
ltibia 53.8853
lfoot -23.5089 11.8428
ltoes -15.4871
35
root 7.55353 14.5988 -0.67162 -9.93865 0.168152 1.68605
lowerback -0.867701 -0.340464 -3.53356
upperback 0.338465 -0.421766 1.26895
thorax 0.869363 -0.234178 3.27967
lowerneck -9.93174 -5.42645 -6.92
upperneck 16.9909 -7.01727 4.01923
head 7.23174 -3.47765 1.78032
rclavicle 3.97569e-015 4.77083e-015
rhumerus 44.2405 1.28299 -66.3041
rradius 20.2519
rwrist 29.1526
rhand -20.5094 39.0738
rfingers 7.12502
rthumb 5.84799 9.17452
lclavicle 3.97569e-015 4.77083e-015
lhumerus 42.0879 -19.43 44.7694
lradius 29.0788
lwrist 16.0468
lhand -14.9896 40.6271
lfingers 7.12502
lthumb 11.1748 70.3095
rfemur -10.6249 -6.01935 11.9456
rtibia 52.7793
rfoot -29.9658 -16.6191
rtoes -13.973
lfemur -13.7234 5.01115 -10.1233
ltibia 53.8741
lfoot -23.5949 11.7892
ltoes -15.1313
36
root 7.55225 14.6012 -0.667533 -9.9449 0.170604 1.69919
lowerback -0.867157 -0.34006 -3.54252
upperback 0.322845 -0.421326 1.27486
thorax 0.853097 -0.233442 3.29089
lowerneck -9.8446 -5.3931 -6.90438
upperneck 16.9497 -6.97641 4.00791
head 7.19958 -3.45933 1.78084
rclavicle 5.1684e-015 -1.51076e-014
rhumerus 44.2126 1.37213 -66.1588
rradius 20.2886
rwrist 29.0537
rhand -20.4754 38.9032
rfingers 7.12502
rthumb 5.88089 9.00486
lclavicle 5.1684e-015 -1.51076e-014
lhumerus 42.0694 -19.461 44.7391
lradius 29.1264
lwrist 16.0772
lhand -14.9317 40.6347
lfingers 7.12502
lthumb 11.2307 70.3141
rfemur -10.5605 -6.0611 11.9106
rtibia 52.7052
rfoot -29.9559 -16.5647
rtoes -13.9099
lfemur -13.7011 4.9552 -10.1554
ltibia 53.8766
lfoot -23.6189 11.8391
ltoes -15.2286
37
root 7.55064 14.603 -0.665099 -9.93062 0.197869 1.72385
lowerback -0.881256 -0.382643 -3.60221
upperback 0.304503 -0.477405 1.31092
thorax 0.84771 -0.261523 3.3608
lowerneck -9.75841 -5.34161 -6.92512
upperneck 16.8842 -6.89553 3.95449
head 7.1574 -3.42759 1.7777
rclavicle 2.88238e-015 -3.18055e-015
rhumerus 44.2085 1.61221 -65.9494
rradius 20.372
rwrist 28.8301
rhand -20.4449 38.6819
rfingers 7.12502
rthumb 5.91033 8.78433
lclavicle 2.88238e-015 -3.18055e-015
lhumerus 41.9842 -19.3364 44.7971
lradius 29.0966
lwrist 15.9588
lhand -14.7844 40.5392
lfingers 7.12502
lthumb 11.3727 70.2108
rfemur -10.5436 -6.10885 11.8762
rtibia 52.6833
rfoot -29.9397 -16.5618
rtoes -14.0041
lfemur -13.7118 4.90722 -10.1945
ltibia 53.8594
lfoot -23.5691 11.9027
ltoes -15.6918
38
root 7.54851 14.6038 -0.661993 -9.91274 0.235602 1.73389
lowerback -0.91083 -0.416994 -3.62315
upperback 0.285003 -0.522251 1.32466
thorax 0.848429 -0.283805 3.38589
lowerneck -9.72258 -5.31243 -6.94491
upperneck 16.9106 -6.8516 3.93366
head 7.15714 -3.41017 1.77934
rclavicle 7.45443e-015 7.15625e-015
rhumerus 44.2411 1.46058 -66.1867
rradius 20.3347
rwrist 29.342
rhand -20.1494 38.4152
rfingers 7.12502
rthumb 6.19554 8.5258
lclavicle 7.45443e-015 7.15625e-015
lhumerus 41.9302 -19.2533 44.7941
lradius 29.1023
lwrist 15.8459
lhand -14.6195 40.5575
lfingers 7.12502
lthumb 11.5317 70.2203
rfemur -10.5102 -6.11611 11.8769
rtibia 52.6316
rfoot -29.9023 -16.6422
rtoes -14.3403
lfemur -13.714 4.87628 -10.1976
ltibia 53.8609
lfoot -23.6315 11.8458
ltoes -15.6998
39
root 7.54709 14.6036 -0.659096 -9.90796 0.268787 1.77893
lowerback -0.94091 -0.446215 -3.66809
upperback 0.289835 -0.559532 1.3179
thorax 0.873863 -0.30329 3.40335
lowerneck -9.73751 -5.28114 -6.94973
upperneck 16.9809 -6.81019 3.93929
head 7.18056 -3.3901 1.78536
rclavicle 5.06901e-015 1.59028e-015
rhumerus 44.3268 1.21756 -66.5458
rradius 20.2515
rwrist 30.0353
rhand -19.9188 38.219
rfingers 7.12502
rthumb 6.41821 8.33627
lclavicle 5.06901e-015 1.59028e-015
lhumerus 41.8884 -19.216 44.7013
lradius 29.1584
lwrist 15.8798
lhand -14.7411 40.6788
lfingers 7.12502
lthumb 11.4144 70.3481
rfemur -10.4811 -6.14004 11.8142
rtibia 52.5994
rfoot -29.8712 -16.6475
rtoes -14.3618
lfemur -13.7003 4.82299 -10.25
ltibia 53.8673
lfoot -23.7443 11.768
ltoes -15.2594
40
root 7.54604 14.6038 -0.656404 -9.93861 0.276887 1.79954
lowerback -0.943464 -0.481078 -3.70982
upperback 0.305558 -0.605502 1.34314
thorax 0.896178 -0.327345 3.45203
lowerneck -9.68615 -5.23383 -6.93737
upperneck 16.9736 -6.74113 3.88924
head 7.16297 -3.36121 1.77547
rclavicle 1.16289e-014 4.77083e-015
rhumerus 44.3251 1.49234 -66.2921
rradius 20.3366
rwrist 29.7174
rhand -20.0927 38.4059
rfingers 7.12502
rthumb 6.25028 8.51813
lclavicle 1.16289e-014 4.77083e-015
lhumerus 41.8052 -19.1283 44.6638
lradius 29.1756
lwrist 15.8448
lhand -14.9118 40.8331
lfingers 7.12502
lthumb 11.2498 70.5115
rfemur -10.429 -6.12118 11.7927
rtibia 52.5901
rfoot -29.8609 -16.6322
rtoes -14.1524
lfemur -13.6342 4.8124 -10.2697
ltibia 53.8189
lfoot -23.6961 11.8325
ltoes -15.3205
41
root 7.54388 14.6056 -0.652552 -9.97918 0.288842 1.78514
lowerback -0.92365 -0.486332 -3.72576
upperback 0.312704 -0.613253 1.37825
thorax 0.893667 -0.331501 3.49729
lowerneck -9.64153 -5.21497 -6.8756
upperneck 16.9678 -6.70736 3.77526
head 7.14524 -3.35143 1.73313
rclavicle 5.26779e-015 1.35174e-014
rhumerus 44.2613 1.75742 -65.8823
rradius 20.4533
rwrist 29.3261
rhand -20.1944 38.6505
rfingers 7.12502
rthumb 6.15215 8.75979
lclavicle 5.26779e-015 1.35174e-014
lhumerus 41.8151 -19.1515 44.5757
lradius 29.187
lwrist 15.8547
lhand -15.0562 40.9016
lfingers 7.12502
lthumb 11.1106 70.5875
rfemur -10.3183 -6.063 11.835
rtibia 52.5187
rfoot -29.8549 -16.6815
rtoes -14.155
lfemur -13.5362 4.80978 -10.2394
ltibia 53.7434
lfoot -23.6719 11.8245
ltoes -15.2331
42
root 7.54211 14.607 -0.64895 -10.0159 0.32244 1.77707
lowerback -0.929036 -0.477472 -3.72448
upperback 0.351572 -0.601034 1.39263
thorax 0.935703 -0.326999 3.51145
lowerneck -9.72058 -5.22994 -6.84246
upperneck 17.0225 -6.71533 3.6976
head 7.1736 -3.35871 1.69952
rclavicle -3.27995e-015 -1.07344e-014
rhumerus 44.287 1.68295 -65.7959
rradius 20.4626
rwrist 29.5296
rhand -20.0092 38.3389
rfingers 7.12502
rthumb 6.33093 8.45346
lclavicle -3.27995e-015 -1.07344e-014
lhumerus 41.9438 -19.1861 44.4308
lradius 29.1915
lwrist 15.9588
lhand -15.1038 40.8091
lfingers 7.12502
lthumb 11.0646 70.4975
rfemur -10.2042 -6.08002 11.8358
rtibia 52.4369
rfoot -29.8379 -16.7036
rtoes -14.2661
lfemur -13.4551 4.75339 -10.2261
ltibia 53.6538
lfoot -23.6837 11.7454
ltoes -14.7437
43
root 7.54109 14.6066 -0.646666 -10.0256 0.3465 1.75804
lowerback -0.955605 -0.463679 -3.67793
upperback 0.374527 -0.581945 1.37587
thorax 0.97182 -0.318263 3.46792
lowerneck -9.72348 -5.24687 -6.80966
upperneck 17.0278 -6.74415 3.69743
head 7.17619 -3.37042 1.69117
rclavicle 1.39149e-014 6.36111e-015
rhumerus 44.3041 1.47626 -65.9255
rradius 20.411
rwrist 29.8628
rhand -19.8751 38.013
rfingers 7.12502
rthumb 6.46035 8.13149
lclavicle 1.39149e-014 6.36111e-015
lhumerus 42.0769 -19.2482 44.2707
lradius 29.1965
lwrist 16.0928
lhand -15.0992 40.7672
lfingers 7.12502
lthumb 11.0691 70.4553
rfemur -10.1726 -6.08663 11.8501
rtibia 52.3912
rfoot -29.8493 -16.7183
rtoes -14.3028
lfemur -13.4476 4.72558 -10.1991
ltibia 53.6261
lfoot -23.6891 11.7046
ltoes -14.5004
44
root 7.53993 14.6065 -0.644963 -9.99099 0.376019 1.72819
lowerback -1.00714 -0.448449 -3.62703
upperback 0.361939 -0.560416 1.35308
thorax 0.985138 -0.30715 3.41575
lowerneck -9.62402 -5.25135 -6.72094
upperneck 16.9808 -6.76891 3.68786
head 7.14103 -3.37882 1.67413
rclavicle -4.96962e-016 1.15295e-014
rhumerus 44.2419 1.45046 -65.8521
rradius 20.2909
rwrist 29.4366
rhand -20.2059 38.5466
rfingers 7.12502
rthumb 6.14101 8.6556
lclavicle -4.96962e-016 1.15295e-014
lhumerus 42.1773 -19.3262 44.1793
lradius 29.1976
lwrist 16.1672
lhand -15.3263 40.9505
lfingers 7.12502
lthumb 10.8501 70.6502
rfemur -10.21 -6.03286 11.906
rtibia 52.3567
rfoot -29.8707 -16.7668
rtoes -14.2639
lfemur -13.5196 4.7032 -10.1652
ltibia 53.8237
lfoot -23.849 11.6239
ltoes -14.5235
45
root 7.53972 14.6073 -0.642937 -9.98157 0.403302 1.71894
lowerback -1.01972 -0.447657 -3.58739
upperback 0.345949 -0.559392 1.32957
thorax 0.975013 -0.305828 3.36909
lowerneck -9.54466 -5.24679 -6.62194
upperneck 16.9588 -6.77018 3.61298
head 7.1137 -3.38065 1.63602
rclavicle 3.18055e-015 1.70955e-014
rhumerus 44.2233 1.23892 -66.0613
rradius 19.9602
rwrist 29.1641
rhand -20.662 40.3184
rfingers 7.12502
rthumb 5.70069 10.4151
lclavicle 3.18055e-015 1.70955e-014
lhumerus 42.1937 -19.345 44.1126
lradius 29.2372
lwrist 16.253
lhand -15.5277 41.1021
lfingers 7.12502
lthumb 10.6558 70.8119
rfemur -10.195 -6.00869 11.9249
rtibia 52.3251
rfoot -29.8742 -16.7859
rtoes -14.1079
lfemur -13.5275 4.64858 -10.1617
ltibia 54.0568
lfoot -23.9365 11.6216
ltoes -15.2179
46
root 7.54022 14.6077 -0.640261 -10.0025 0.397663 1.75487
lowerback -0.999864 -0.447749 -3.57845
upperback 0.345771 -0.560072 1.30323
thorax 0.963374 -0.305782 3.33697
lowerneck -9.479 -5.23543 -6.58348
upperneck 16.9232 -6.75751 3.57654
head 7.08724 -3.3761 1.62123
rclavicle 2.28602e-015 1.39149e-014
rhumerus 44.1262 1.65547 -65.6593
rradius 20.3036
rwrist 28.8415
rhand -20.5011 38.8068
rfingers 7.12502
rthumb 5.85607 8.90769
lclavicle 2.28602e-015 1.39149e-014
lhumerus 42.1622 -19.3421 44.0285
lradius 29.3254
lwrist 16.4669
lhand -15.8626 41.1448
lfingers 7.12502
lthumb 10.3327 70.8709
rfemur -10.1423 -6.00778 11.8736
rtibia 52.323
rfoot -29.9188 -16.7065
rtoes -13.9284
lfemur -13.4607 4.6062 -10.2144
ltibia 53.9829
lfoot -23.816 11.716
ltoes -15.7063
